<svg viewBox="0 0 96 96" xmlns="http://www.w3.org/2000/svg" xmlns:xlink="http://www.w3.org/1999/xlink" id="Icons_Aspiration1" overflow="hidden"><style>
.MsftOfcThm_MainDark2_Stroke_v2 {
 stroke:#1B4171; 
}
</style>
<path d="M55.47 62.721 55.47 41.221C60.3714 34.4389 62.7491 26.1573 62.192 17.808 62.0934 16.1539 60.6726 14.8929 59.0185 14.9915 57.3644 15.0901 56.1034 16.5109 56.202 18.165 56.6868 25.0492 54.7552 31.887 50.74 37.5L49.44 37.5C48.468 37.5311 47.504 37.6857 46.571 37.96 46.285 38.036 46.107 38.086 45.857 38.177 36.6 41.543 30.182 47.712 25.657 57.591 24.9666 59.0974 25.6281 60.8781 27.1345 61.5685 28.6409 62.2589 30.4216 61.5974 31.112 60.091 33.745 54.344 37.105 50.101 41.45 47.109L41.45 65.847 38.5 71.819 25.776 70.986C24.1219 70.8906 22.7036 72.1541 22.6082 73.8082 22.5138 75.4442 23.7497 76.8532 25.384 76.973L40.105 77.938C40.172 77.938 40.237 77.944 40.305 77.944 41.4458 77.9434 42.4876 77.2958 42.993 76.273L48.924 64.273 56.267 72.953 55.142 88.905C55.0275 90.5562 56.272 91.9881 57.923 92.105 57.994 92.111 58.066 92.113 58.137 92.113 59.7106 92.1111 61.0153 90.8937 61.126 89.324L62.337 72.154C62.3934 71.374 62.1422 70.603 61.637 70.006Z" class="MsftOfcThm_MainDark2_Stroke_v2" stroke="#1B4171" fill="#CCCFD7"/><path d="M63.271 5.937 61.152 5.937C60.8908 5.93164 60.6603 5.7646 60.574 5.518L59.881 3.458C59.785 3.19601 59.5426 3.01605 59.264 3 58.997 3.0152 58.7602 3.1763 58.648 3.419L57.954 5.479C57.8814 5.7352 57.6431 5.90863 57.377 5.899L55.258 5.899C54.9915 5.8889 54.7527 6.06242 54.68 6.319 54.604 6.56553 54.6791 6.83375 54.872 7.005L55.604 7.654 56.529 8.493C56.6141 8.57799 56.6799 8.68031 56.722 8.793 56.76 8.90417 56.76 9.02483 56.722 9.136L56.067 11.311C55.9782 11.5669 56.0741 11.8505 56.3 12 56.52 12.153 56.812 12.153 57.032 12L58.881 10.7C59.1014 10.5481 59.3926 10.5481 59.613 10.7L61.46 12C61.68 12.153 61.972 12.153 62.192 12 62.4107 11.8465 62.5043 11.5686 62.423 11.314L61.768 9.139C61.6929 8.90386 61.7695 8.64674 61.961 8.491L63.661 7.041C63.8504 6.86756 63.9252 6.60176 63.854 6.355 63.7571 6.11445 63.5299 5.95156 63.271 5.937Z" class="MsftOfcThm_MainDark2_Stroke_v2" stroke="#1B4171" fill="#CCCFD7"/><path d="M69.871 11.24 69.071 10.78C68.9736 10.7212 68.9239 10.6074 68.947 10.496L69.147 9.572C69.1693 9.45312 69.1181 9.33247 69.017 9.266 68.9125 9.21344 68.7876 9.22266 68.692 9.29L67.975 9.913C67.8914 9.99358 67.7637 10.0072 67.665 9.946L66.865 9.485C66.7663 9.42383 66.6386 9.43742 66.555 9.518 66.4719 9.5937 66.4406 9.71096 66.475 9.818L66.607 10.218 66.768 10.734C66.7795 10.7857 66.7795 10.8393 66.768 10.891 66.7576 10.9412 66.7309 10.9866 66.692 11.02L65.965 11.695C65.8756 11.7708 65.8485 11.8973 65.899 12.003 65.9487 12.1085 66.0588 12.1719 66.175 12.162L67.157 12.076C67.2729 12.0663 67.3826 12.1297 67.432 12.235L67.84 13.124C67.8894 13.2293 67.9991 13.2927 68.115 13.283 68.2314 13.2729 68.3279 13.1889 68.354 13.075L68.589 12.116C68.6132 12.0114 68.6988 11.9321 68.805 11.916L69.763 11.739C69.8771 11.7188 69.9693 11.6347 70 11.523 70.0168 11.4115 69.9662 11.3005 69.871 11.24Z" class="MsftOfcThm_MainDark2_Stroke_v2" stroke="#1B4171" fill="#CCCFD7"/><path d="M49.2 13.519 49.665 13.802C49.7088 13.8318 49.7456 13.8707 49.773 13.916 49.7985 13.9605 49.8084 14.0122 49.801 14.063L49.701 15.045C49.6856 15.1612 49.7493 15.2736 49.857 15.32 49.9636 15.3671 50.0883 15.3432 50.17 15.26L50.852 14.56C50.9336 14.4766 51.0586 14.453 51.165 14.501L52.065 14.901C52.1713 14.948 52.2957 14.924 52.377 14.841 52.4583 14.7576 52.4753 14.6309 52.419 14.529L51.958 13.653C51.9064 13.5587 51.9179 13.4424 51.987 13.36L52.587 12.603C52.6825 12.487 52.6659 12.3156 52.55 12.2201 52.4889 12.1698 52.409 12.1486 52.331 12.162L51.425 12.335C51.3128 12.3532 51.201 12.3003 51.144 12.202L50.676 11.379C50.6145 11.2745 50.4961 11.2173 50.376 11.234 50.2633 11.262 50.1755 11.3502 50.148 11.463L50.023 12.4C50.0128 12.5152 49.9253 12.6085 49.811 12.626L48.906 12.799C48.7917 12.8165 48.7042 12.9098 48.694 13.025 48.6815 13.137 48.736 13.2458 48.833 13.303Z" class="MsftOfcThm_MainDark2_Stroke_v2" stroke="#1B4171" fill="#CCCFD7"/><circle cx="44.781" cy="29.968" r="6" class="MsftOfcThm_MainDark2_Stroke_v2" stroke="#1B4171" fill="#CCCFD7"/></svg>