<svg viewBox="0 0 96 96" xmlns="http://www.w3.org/2000/svg" xmlns:xlink="http://www.w3.org/1999/xlink" id="Icons_Tax" overflow="hidden"><path d="M36.01 28 59.966 28 65.846 13.764C66.1087 13.1382 66.0333 12.4214 65.646 11.864 65.1011 11.1366 64.1073 10.915 63.305 11.342L55.988 15 48.882 11.447C48.3189 11.1654 47.6561 11.1654 47.093 11.447L39.988 15 32.649 11.335C31.948 10.955 31.0812 11.0767 30.512 11.635 29.9784 12.2064 29.8286 13.0372 30.129 13.759Z" fill="#0F1A80"/><path d="M41.033 54.566C42.4319 54.566 43.566 53.4319 43.566 52.033 43.566 50.6341 42.4319 49.5 41.033 49.5 39.6341 49.5 38.5 50.6341 38.5 52.033 38.5017 53.4313 39.6347 54.5643 41.033 54.566Z" fill="#0F1A80"/><path d="M54.967 63.434C53.5681 63.434 52.434 64.5681 52.434 65.967 52.434 67.3659 53.5681 68.5 54.967 68.5 56.3659 68.5 57.5 67.3659 57.5 65.967 57.4983 64.5687 56.3653 63.4356 54.967 63.434Z" fill="#0F1A80"/><path d="M60.445 32 35.555 32C24.91 42.271 14 49.915 14 64 14 73.793 18.335 80.173 27.556 83.424 28.6359 83.8051 29.7728 83.9999 30.918 84L65.082 84C66.2272 83.9999 67.3641 83.8051 68.444 83.424 77.665 80.173 82 73.793 82 64 82 49.915 71.09 42.271 60.445 32ZM41.033 46.5C44.0888 46.5 46.566 48.9772 46.566 52.033 46.566 55.0888 44.0888 57.566 41.033 57.566 37.9772 57.566 35.5 55.0888 35.5 52.033 35.5039 48.9788 37.9788 46.5039 41.033 46.5ZM36.673 68.206 56.839 48.039 58.96 50.16 38.794 70.327ZM54.967 71.5C51.9112 71.5 49.434 69.0228 49.434 65.967 49.434 62.9112 51.9112 60.434 54.967 60.434 58.0228 60.434 60.5 62.9112 60.5 65.967 60.4961 69.0212 58.0212 71.4961 54.967 71.5Z" fill="#0F1A80"/></svg>