<svg viewBox="0 0 96 96" xmlns="http://www.w3.org/2000/svg" xmlns:xlink="http://www.w3.org/1999/xlink" id="Icons_WorkFromHomeHouse" overflow="hidden"><style>
.MsftOfcThm_Background2_Fill_v2 {
 fill:#EEECE1; 
}
</style>
<path d="M48.005 20.248 48.007 20.248 85.465 55.831 90.005 51.951 48.007 11.998 48.005 11.998 6.007 51.951 10.547 55.831 48.005 20.248Z" class="MsftOfcThm_Background2_Fill_v2" fill="#EEECE1"/><path d="M44.3112 50.6186 44.3112 53.0503 51.789 53.0503 51.789 50.6186C51.8008 50.4239 51.6524 50.2564 51.4576 50.2447 51.4434 50.2438 51.4292 50.2438 51.4151 50.2447L44.6851 50.2447C44.4903 50.2329 44.3229 50.3813 44.3112 50.5761 44.3103 50.5903 44.3103 50.6045 44.3112 50.6187Z" class="MsftOfcThm_Background2_Fill_v2" fill="#EEECE1"/><path d="M18.0049 54.2632 18.0049 83.9976 78.0049 83.9976 78.0049 54.2615 48.0058 25.7639ZM63.0058 72.5037C63.0036 73.3288 62.3354 73.9974 61.5102 74L34.59 74C33.7648 73.9974 33.0966 73.3288 33.0945 72.5037L33.0945 62.0288 45.8067 62.0288 45.8067 62.7768C45.8088 63.6021 46.4771 64.2707 47.3023 64.2734L48.7979 64.2734C49.6231 64.2707 50.2913 63.6021 50.2934 62.7768L50.2934 62.0288 63.0058 62.0288ZM54.0324 50.6187 54.0324 53.0503 61.5102 53.0503C62.3355 53.053 63.0037 53.7216 63.0058 54.5469L63.0058 60 50.2934 60 50.2934 59 45.8067 59 45.8067 60 33.0944 60 33.0944 54.5469C33.0965 53.7216 33.7647 53.0529 34.59 53.0503L42.0678 53.0503 42.0678 50.6186C42.0585 49.1817 43.2158 48.0093 44.6527 48 44.6635 47.9999 44.6743 47.9999 44.6851 48L51.4151 48C52.852 47.9914 54.0238 49.1493 54.0324 50.5863 54.0324 50.597 54.0324 50.6079 54.0324 50.6187Z" class="MsftOfcThm_Background2_Fill_v2" fill="#EEECE1"/></svg>