<svg viewBox="0 0 22 23" xmlns="http://www.w3.org/2000/svg" xmlns:xlink="http://www.w3.org/1999/xlink" overflow="hidden"><defs><clipPath id="clippath"><rect x="0" y="0" width="22" height="23" fill="none"/></clipPath><clipPath id="clippath-1"><rect x="-0.6" y="-0.1" width="22" height="23" fill="none"/></clipPath><clipPath id="clippath-2"><rect x="0.4" y="0.9" width="21" height="21" fill="none"/></clipPath><clipPath id="clippath-3"><rect x="0.4" y="0.9" width="21" height="21" fill="none"/></clipPath><clipPath id="clippath-4"><rect x="0.4" y="0.9" width="21" height="21" fill="none"/></clipPath></defs><g><g id="Layer_1"><g clip-path="url(#clippath)"><g clip-path="url(#clippath-1)"><g clip-path="url(#clippath-2)"><g clip-path="url(#clippath-3)"><g clip-path="url(#clippath-4)"><g><path d="M16.6 11.4C16.6 14.5 14.1 17 11 17 7.9 17 5.4 14.5 5.4 11.4 5.4 8.3 7.9 5.8 11 5.8 14.1 5.8 16.6 8.3 16.6 11.4Z" stroke="none" stroke-width="1" stroke-linecap="butt" stroke-linejoin="miter" stroke-miterlimit="4" fill="#2954F0" fill-opacity="1"/><path d="M11 21.9C5.2 21.9 0.4 17.2 0.4 11.4 0.4 5.6 5.2 0.9 11 0.9 16.8 0.9 21.5 5.6 21.5 11.4 21.5 17.2 16.8 21.9 11 21.9L11 21.9ZM11 2.4C6 2.4 2 6.4 2 11.4 2 16.4 6 20.4 11 20.4 16 20.4 20 16.4 20 11.4 20 6.4 15.9 2.4 11 2.4Z" stroke="none" stroke-width="1" stroke-linecap="butt" stroke-linejoin="miter" stroke-miterlimit="4" fill="#2954F0" fill-opacity="1"/></g></g></g></g></g></g></g></g></svg>